HIERARCHY
ROOT hip
{
	OFFSET 0.000000 0.000000 0.000000 
	CHANNELS 6 Xposition Yposition Zposition Xrotation Zrotation Yrotation
	JOINT abdomen
	{
		OFFSET 0.000000 3.402643 0.000000 
		CHANNELS 3 Xrotation Zrotation Yrotation
		JOINT chest
		{
			OFFSET 0.000000 8.438565 -0.680529 
			CHANNELS 3 Xrotation Zrotation Yrotation
			JOINT neck
			{
				OFFSET 0.000000 10.207942 -0.272212 
				CHANNELS 3 Xrotation Zrotation Yrotation
				JOINT head
				{
					OFFSET 0.000000 3.130431 0.000000 
					CHANNELS 3 Xrotation Zrotation Yrotation
					End Site
					{
						OFFSET 0.000000 3.130435 0.000000 
					}
				}
			}
			JOINT lCollar
			{
				OFFSET 3.470700 6.669187 -0.816635 
				CHANNELS 3 Yrotation Zrotation Xrotation
				JOINT lShldr
				{
					OFFSET 3.198488 0.000000 0.000000 
					CHANNELS 3 Zrotation Yrotation Xrotation
					JOINT lForeArm
					{
						OFFSET 10.139888 0.000000 0.000000 
						CHANNELS 3 Yrotation Zrotation Xrotation
						JOINT lHand
						{
							OFFSET 8.370511 0.000000 0.000000 
							CHANNELS 3 Zrotation Yrotation Xrotation
							End Site
							{
								OFFSET 4.083176 0.000000 0.000000 
							}
						}
					}
				}
			}
			JOINT rCollar
			{
				OFFSET -3.470700 6.669187 -0.816635 
				CHANNELS 3 Yrotation Zrotation Xrotation
				JOINT rShldr
				{
					OFFSET -3.198488 0.000000 0.000000 
					CHANNELS 3 Zrotation Yrotation Xrotation
					JOINT rForeArm
					{
						OFFSET -10.139888 0.000000 0.000000 
						CHANNELS 3 Yrotation Zrotation Xrotation
						JOINT rHand
						{
							OFFSET -8.370511 0.000000 0.000000 
							CHANNELS 3 Zrotation Yrotation Xrotation
							End Site
							{
								OFFSET -4.083176 0.000000 0.000000 
							}
						}
					}
				}
			}
		}
	}
	JOINT lThigh
	{
		OFFSET 5.308129 -1.633274 1.361059 
		CHANNELS 3 Xrotation Zrotation Yrotation
		JOINT lShin
		{
			OFFSET -2.041588 -20.007561 0.000000 
			CHANNELS 3 Xrotation Zrotation Yrotation
			JOINT lFoot
			{
				OFFSET 0.000000 -19.190928 -1.224953 
				CHANNELS 3 Xrotation Yrotation Zrotation
				End Site
				{
					OFFSET 0.000000 -2.449906 4.627600 
				}
			}
		}
	}
	JOINT rThigh
	{
		OFFSET -5.308129 -1.633274 1.361059 
		CHANNELS 3 Xrotation Zrotation Yrotation
		JOINT rShin
		{
			OFFSET 2.041588 -20.007561 0.000000 
			CHANNELS 3 Xrotation Zrotation Yrotation
			JOINT rFoot
			{
				OFFSET 0.000000 -19.190928 -1.224953 
				CHANNELS 3 Xrotation Yrotation Zrotation
				End Site
				{
					OFFSET 0.000000 -2.449906 4.627600 
				}
			}
		}
	}
}
MOTION
Frames: 18
Frame Time: 0.016667
0.463323 49.779068 -3.841013 -13.859221 0.623888 3.418191 34.801765 -1.757615 -0.859869 -15.307658 9.384765 0.030497 0.351683 7.816548 9.327004 -12.254713 -7.368193 12.289449 0.614543 -4.052839 -0.009741 -76.951607 14.166256 -0.114570 -56.907314 4.030719 52.431011 -14.665717 14.890588 -3.855218 6.259405 -2.129971 -0.009701 66.964600 -23.669962 3.489961 55.962322 -2.831512 33.219593 -4.426919 -2.269362 0.165735 -0.106946 7.030507 -6.780283 30.026236 -1.134189 -2.544989 -2.393826 -3.257424 -12.340424 -0.390877 -11.705943 -4.479359 29.833441 1.111629 2.481028 -1.105705 -10.663722 11.742376 
0.483823 49.793369 -3.783641 -13.886848 0.799299 3.486670 34.744068 -1.777135 -0.879392 -15.467113 9.511719 0.011245 -0.012966 8.012095 9.626541 -13.228916 -7.421524 12.764158 0.975897 -3.896651 -0.009742 -76.963921 14.835632 -0.119392 -58.097370 4.005698 52.166218 -14.355148 14.979387 -3.782079 5.946891 -2.208043 -0.009706 66.814835 -24.307613 3.205843 56.719273 -2.815705 33.118298 -4.739396 -2.180834 0.170854 0.088043 6.842998 -6.872909 29.801689 -1.153569 -2.518928 -2.309823 -3.264699 -12.347702 -0.254556 -11.885873 -4.534981 29.785242 1.091901 2.473876 -1.131630 -10.657216 11.744637 
0.499577 49.807732 -3.722046 -13.905502 0.955190 3.555332 34.656326 -1.786899 -0.879393 -15.659254 9.599608 -0.028886 -0.420364 8.246044 9.908204 -13.979198 -7.484210 13.219512 1.376327 -3.672110 -0.009743 -77.004379 15.514363 -0.128222 -59.260941 3.996519 51.932076 -13.966773 15.080004 -3.701764 5.614852 -2.256815 -0.009711 66.685654 -24.944588 2.889658 57.473038 -2.801476 32.948826 -4.944268 -2.063456 0.168569 0.273985 6.677792 -6.945053 29.606367 -1.153544 -2.508995 -2.185732 -3.226841 -12.334357 -0.108305 -12.054070 -4.600562 29.746231 1.101649 2.464587 -1.120961 -10.666232 11.731023 
0.515324 49.822025 -3.660385 -13.923781 1.111056 3.623879 34.578510 -1.786894 -0.889153 -15.859622 9.697261 -0.059401 -0.825402 8.479393 10.191440 -14.730583 -7.546150 13.674869 1.776756 -3.447568 -0.009743 -77.043327 16.192991 -0.138438 -60.420788 3.981080 51.704510 -13.567350 15.171320 -3.612988 5.292576 -2.315354 -0.009716 66.556381 -25.572668 2.571339 58.232780 -2.789253 32.780598 -5.148825 -1.956727 0.156601 0.449233 6.507970 -7.037389 29.420118 -1.163340 -2.511644 -2.095157 -3.182429 -12.331695 0.038552 -12.210101 -4.675559 29.726379 1.111456 2.465856 -1.111366 -10.684752 11.745392 
0.530470 49.831467 -3.593066 -13.980752 1.266897 3.692446 34.489704 -1.786908 -0.859871 -16.066465 9.775383 -0.069025 -1.238752 8.732152 10.445924 -15.283815 -7.580538 14.080561 2.089298 -3.203481 -0.009744 -77.119652 16.912489 -0.212385 -61.613251 3.960018 51.452229 -13.119087 15.253414 -3.517325 4.921473 -2.364119 -0.009721 66.403152 -26.207134 2.249083 59.014263 -2.782173 32.640285 -5.422635 -1.916147 0.171964 0.673933 6.350928 -7.130514 29.254099 -1.173166 -2.495850 -2.079037 -3.159040 -12.321042 0.194509 -12.384032 -4.752700 29.755678 1.111460 2.467335 -1.091042 -10.658035 11.746198 
0.545535 49.840839 -3.525719 -14.047753 1.412967 3.761029 34.401058 -1.777153 -0.840348 -16.271652 9.863275 -0.069022 -1.649806 8.984333 10.700626 -15.848696 -7.614053 14.494630 2.411607 -2.949630 -0.009744 -77.195351 17.624170 -0.297457 -62.808048 3.947676 51.199448 -12.667915 15.337092 -3.411428 4.560137 -2.412886 -0.009726 66.247810 -26.841898 1.928702 59.789822 -2.771896 32.505138 -5.686362 -1.886182 0.177878 0.908286 6.210123 -7.223417 29.069262 -1.182778 -2.459565 -2.056771 -3.166297 -12.322582 0.341340 -12.565859 -4.830454 29.775167 1.101636 2.475627 -1.086078 -10.649592 11.748911 
0.554013 49.845825 -3.455444 -14.108953 1.490789 3.839384 34.281998 -1.708813 -0.811060 -16.442913 9.951157 -0.097875 -2.119687 9.264380 10.965164 -16.216316 -7.637564 14.909980 2.753441 -2.734844 -0.009743 -77.282249 18.308846 -0.406573 -64.042313 3.931695 50.831413 -12.116570 15.617182 -3.315366 4.237869 -2.422597 -0.009730 66.072563 -27.374056 1.537087 60.561218 -2.749351 32.312210 -6.096642 -1.855729 0.188265 1.083179 6.145117 -7.301445 29.009569 -1.183447 -2.485866 -2.061847 -3.128456 -12.329215 0.506844 -12.643241 -4.981300 29.804466 1.101638 2.477104 -1.086353 -10.636668 11.743490 
0.562402 49.850807 -3.385199 -14.170341 1.558833 3.927248 34.162868 -1.630708 -0.781767 -16.604530 10.048803 -0.128414 -2.584970 9.553314 11.233108 -16.583065 -7.660890 15.315651 3.095274 -2.520059 -0.009742 -77.368179 18.993008 -0.518262 -65.269203 3.904735 50.469296 -11.573586 15.886744 -3.217757 3.915604 -2.422542 -0.009734 65.898499 -27.902012 1.130349 61.332066 -2.720657 32.117802 -6.497172 -1.834961 0.199019 1.259958 6.083066 -7.377717 28.931103 -1.192623 -2.484056 -2.069518 -3.120026 -12.315441 0.692305 -12.717630 -5.142827 29.833044 1.101633 2.497994 -1.083332 -10.624777 11.738923 
0.563336 49.855011 -3.317602 -14.222440 1.617117 4.015378 33.994724 -1.552604 -0.742709 -16.733622 10.214814 -0.138015 -3.187120 9.814160 11.459579 -16.721258 -7.722772 15.682629 3.485919 -2.402938 -0.009739 -77.359154 19.533609 -0.530287 -66.441956 3.873298 50.088364 -11.068379 16.124939 -3.118254 3.583560 -2.490845 -0.009737 65.729828 -28.307976 0.702383 62.086056 -2.706164 31.869827 -6.819357 -1.765936 0.201225 1.416111 6.042422 -7.453077 28.843557 -1.192528 -2.469840 -2.067386 -3.162880 -12.321869 0.829908 -12.773248 -5.281263 29.872467 1.101651 2.490259 -1.132320 -10.634757 11.742908 
0.564190 49.859150 -3.250035 -14.264592 1.675384 4.103518 33.826443 -1.474501 -0.693632 -16.874325 10.380820 -0.157211 -3.796909 10.074446 11.687952 -16.860334 -7.784075 16.049610 3.876563 -2.295582 -0.009735 -77.359375 20.074034 -0.545873 -67.621574 3.860493 49.705849 -10.572840 16.371710 -3.019351 3.261283 -2.559149 -0.009740 65.563805 -28.706732 0.267949 62.839146 -2.686412 31.620737 -7.151265 -1.687223 0.201736 1.561621 6.011691 -7.548241 28.793982 -1.203073 -2.479543 -2.080241 -3.174094 -12.338144 0.975889 -12.817542 -5.419583 29.902069 1.091845 2.489326 -1.168836 -10.638073 11.718022 
0.558588 49.857891 -3.184909 -14.327233 1.714135 4.201134 33.668068 -1.376863 -0.654577 -17.075596 10.556586 -0.187774 -4.294567 10.363564 11.897399 -16.906824 -7.929493 16.410936 4.169541 -2.237038 -0.009732 -77.317528 20.599167 -0.521439 -68.768120 3.821547 49.213310 -10.054867 16.599747 -2.907648 3.017131 -2.627467 -0.009742 65.447731 -29.059408 -0.249712 63.554943 -2.663793 31.299290 -7.786301 -1.684884 0.220413 1.698523 6.010465 -7.571236 28.784569 -1.193261 -2.476735 -2.092730 -3.206196 -12.330541 1.112189 -12.858433 -5.596948 30.019255 1.091733 2.495194 -1.230348 -10.589688 11.723491 
0.552950 49.856606 -3.119737 -14.389008 1.762608 4.299044 33.509937 -1.288988 -0.615518 -17.277048 10.732345 -0.218360 -4.791884 10.652502 12.097542 -16.960783 -8.065088 16.761335 4.462523 -2.168729 -0.009729 -77.274345 21.124220 -0.493194 -69.922424 3.792169 48.714020 -9.525632 16.827574 -2.789358 2.772979 -2.695785 -0.009743 65.331154 -29.426039 -0.771867 64.259285 -2.631894 30.984013 -8.421376 -1.691998 0.240491 1.833594 5.996726 -7.614621 28.774801 -1.193260 -2.476236 -2.102916 -3.267702 -12.334701 1.229563 -12.907866 -5.793908 30.146570 1.091634 2.492039 -1.302593 -10.524350 11.722979 
0.544415 49.853661 -3.051409 -14.494751 1.859675 4.426248 33.351723 -1.201113 -0.566691 -17.529627 10.956923 -0.258558 -5.185886 10.798568 12.271441 -16.927446 -8.230851 17.045588 4.657837 -2.158996 -0.009726 -77.202393 21.579594 -0.362262 -70.972992 3.761969 48.286484 -8.983664 17.026144 -2.657149 2.626479 -2.783651 -0.009744 65.220146 -29.777617 -1.409723 64.921364 -2.613826 30.613195 -8.997455 -1.612329 0.245283 2.010482 5.970840 -7.650430 28.735733 -1.193225 -2.474236 -2.192166 -3.368096 -12.338768 1.375892 -12.992295 -6.014933 30.331688 1.081960 2.518200 -1.381324 -10.501287 11.696183 
0.535785 49.850624 -2.983053 -14.589957 1.956674 4.563217 33.193932 -1.122999 -0.527625 -17.782471 11.171727 -0.296878 -5.571080 10.944749 12.437654 -16.884615 -8.396338 17.318920 4.843386 -2.139497 -0.009724 -77.130043 22.025242 -0.232639 -72.022522 3.743526 47.858639 -8.441099 17.233410 -2.525778 2.479978 -2.881282 -0.009744 65.114639 -30.122278 -2.050115 65.578087 -2.592249 30.239939 -9.573547 -1.542372 0.250121 2.197003 5.934494 -7.687342 28.696665 -1.203001 -2.464826 -2.266527 -3.482994 -12.347946 1.542565 -13.103800 -6.229388 30.518246 1.071889 2.505724 -1.472578 -10.450037 11.701555 
0.519501 49.839687 -2.912312 -14.758823 2.102287 4.700546 33.065979 -1.074178 -0.498142 -18.065269 11.445117 -0.337055 -5.925253 10.948942 12.567750 -16.687815 -8.491206 17.491549 4.960569 -2.168813 -0.009722 -77.021400 22.368162 0.024267 -72.926849 3.706192 47.441921 -7.790989 17.346991 -2.343143 2.372539 -2.978920 -0.009744 64.954231 -30.377680 -2.660619 66.174232 -2.554345 29.825113 -10.179052 -1.501195 0.259505 2.411779 5.875988 -7.697104 28.725969 -1.193232 -2.473739 -2.299266 -3.657733 -12.356749 1.716178 -13.223611 -6.435883 30.772058 1.062093 2.525708 -1.610003 -10.401460 11.671247 
0.503197 49.828697 -2.841554 -14.917224 2.247832 4.837916 32.947746 -1.035123 -0.459086 -18.348394 11.708735 -0.377245 -6.279395 10.953072 12.695991 -16.488619 -8.576506 17.664232 5.077753 -2.188365 -0.009720 -76.911819 22.710455 0.278520 -73.836884 3.687278 47.036873 -7.140491 17.468403 -2.162411 2.265100 -3.076558 -0.009744 64.774437 -30.637600 -3.254880 66.771698 -2.509740 29.401369 -10.794308 -1.459949 0.268296 2.604005 5.822245 -7.725507 28.775341 -1.197994 -2.457931 -2.341813 -3.831470 -12.386961 1.894205 -13.379221 -6.665056 31.044426 1.060758 2.568086 -1.767033 -10.369057 11.623005 
0.485239 49.813313 -2.769350 -15.097884 2.451567 5.004601 32.829586 -0.976535 -0.429792 -18.706953 11.835645 -0.407902 -6.515082 10.989079 12.747599 -16.202242 -8.657439 17.727949 5.087536 -2.090710 -0.009721 -76.781174 23.028000 0.606185 -74.726585 3.661854 46.663044 -6.722819 17.531565 -2.041752 2.235804 -3.076553 -0.009744 64.567390 -30.866913 -3.799649 67.308479 -2.486000 28.973276 -11.526677 -1.398988 0.275232 2.860261 5.719665 -7.740691 28.784569 -1.193312 -2.476747 -2.434720 -3.982122 -12.402079 2.069705 -13.564283 -6.877899 31.387339 1.032785 2.568444 -1.865001 -10.305285 11.622024 
0.467242 49.797897 -2.697087 -15.277352 2.655178 5.171764 32.711273 -0.908182 -0.390731 -19.059942 11.952752 -0.457682 -6.756361 11.034163 12.810660 -15.924295 -8.728533 17.799866 5.097318 -1.993055 -0.009721 -76.648666 23.356115 0.931384 -75.617531 3.634789 46.292583 -6.304865 17.593931 -1.920313 2.206507 -3.076548 -0.009744 64.363251 -31.100334 -4.342861 67.852295 -2.454766 28.541634 -12.268836 -1.347591 0.282959 3.103272 5.600041 -7.786606 28.793974 -1.203151 -2.479561 -2.503988 -4.127600 -12.423536 2.254274 -13.746252 -7.101649 31.738657 1.013265 2.600338 -1.967393 -10.254580 11.604207 
